<?xml version="1.0" standalone="no"?><!DOCTYPE svg PUBLIC "-//W3C//DTD SVG 1.1//EN" "http://www.w3.org/Graphics/SVG/1.1/DTD/svg11.dtd"><svg t="1634892767007" class="icon" viewBox="0 0 1024 1024" version="1.1" xmlns="http://www.w3.org/2000/svg" p-id="8935" xmlns:xlink="http://www.w3.org/1999/xlink" width="200" height="200"><defs><style type="text/css"></style></defs><path d="M515.868494 0.959131c-211.552281 0-383.652315 172.100034-383.652315 383.652315a380.455212 380.455212 0 0 0 72.446346 223.6693l10.038902 14.099222 275.590246 388.831621a31.971026 31.971026 0 0 0 51.153642 0l272.169347-384.227793 13.427831-18.607137a380.966749 380.966749 0 0 0 72.510287-223.797184C899.520809 173.059165 727.420775 0.959131 515.868494 0.959131z m0 511.53642c-70.528084 0-127.884105-57.356021-127.884105-127.884105s57.356021-127.884105 127.884105-127.884105 127.884105 57.356021 127.884105 127.884105-57.356021 127.884105-127.884105 127.884105z" p-id="8936" fill="#ffffff"></path></svg>